<svg xmlns="http://www.w3.org/2000/svg" viewBox="0 0 136.78 112.98"><defs><style>.cls-1{fill:#c23600;}</style></defs><g id="Capa_2" data-name="Capa 2"><g id="Capa_4" data-name="Capa 4"><path class="cls-1" d="M68.37,57.21A12.23,12.23,0,1,0,80.6,69.43,12.24,12.24,0,0,0,68.37,57.21Zm0,19.3a7.08,7.08,0,1,1,7.08-7.08A7.09,7.09,0,0,1,68.37,76.51Z"/><path class="cls-1" d="M49.51,57.16a2.63,2.63,0,1,0,2.62,2.62A2.62,2.62,0,0,0,49.51,57.16Z"/><path class="cls-1" d="M129.07,73.48c-16.17,0-18.81-12.51-19.18-18,0-.33,0-.65,0-1A41.45,41.45,0,0,0,99.57,27.1c-.58-.67-1.19-1.32-1.82-1.94l-.08-.09-.55-.51q-.91-.87-1.86-1.68a43.83,43.83,0,0,0-4-3A41.43,41.43,0,0,0,75.1,13.55l3.37-.9h0a6.43,6.43,0,1,0-7.88-7.88L68.39,13h0l-2.2-8.22a6.43,6.43,0,1,0-7.88,7.88l3.36.9a41.49,41.49,0,0,0-16.12,6.28c-.77.51-1.53,1.05-2.26,1.61a41.84,41.84,0,0,0-5.83,5.38c-.08.1-.17.18-.25.28A41.45,41.45,0,0,0,26.84,54.52c0,.41,0,.82,0,1.23-.44,5.46-3.21,17.73-19.15,17.73a7.72,7.72,0,0,0,0,15.43c13.41,0,21.47-5.51,26.23-11.16.41.6.83,1.2,1.28,1.78C35,84,32.77,97.56,16,97.56A7.71,7.71,0,0,0,16,113c17.85,0,26.41-9.56,30.45-17.58a37.08,37.08,0,0,0,1.88-4.48,41.5,41.5,0,0,0,40,0,36.56,36.56,0,0,0,1.88,4.49c4,8,12.62,17.58,30.46,17.58a7.71,7.71,0,0,0,0-15.42c-16.67,0-18.9-13.59-19.18-18.06.44-.58.86-1.17,1.26-1.76,4.76,5.65,12.82,11.17,26.25,11.17a7.72,7.72,0,0,0,0-15.43ZM68.37,18.13A36.28,36.28,0,0,1,85.1,22.22a31.26,31.26,0,0,1-16.72,4.87,31.29,31.29,0,0,1-16.73-4.87A36.27,36.27,0,0,1,68.37,18.13ZM7.71,83.77a2.57,2.57,0,0,1,0-5.14c10.85,0,17.52-5,21.08-11.46A40.87,40.87,0,0,0,31.15,73C26,80.14,18.08,83.77,7.71,83.77Zm113,18.93a2.57,2.57,0,1,1,0,5.14c-15.23,0-22.47-8-25.87-14.75a33.5,33.5,0,0,1-2.49-6.71s0-.1,0-.15-.06-.17-.1-.26a1.67,1.67,0,0,0-.12-.23s0-.1-.08-.14,0,0,0-.07l-.17-.21-.16-.17-.2-.16a1.49,1.49,0,0,0-.2-.15L91,84.72l-.22-.1-.25-.08-.22-.05-.27,0h-.22l-.25,0-.27,0-.08,0-.15,0-.25.09-.24.13-.14.07a36.41,36.41,0,0,1-40.17,0l-.14-.08-.24-.13-.26-.09-.14,0-.08,0-.28,0-.23,0h-.24a2.06,2.06,0,0,0-.26,0l-.22,0-.26.08-.2.1-.23.12a1.33,1.33,0,0,0-.19.14l-.21.17-.15.16a2,2,0,0,0-.18.23s0,0,0,0a.91.91,0,0,0-.07.14,1.41,1.41,0,0,0-.13.24,2.77,2.77,0,0,0-.1.26c0,.05,0,.09,0,.15a34.11,34.11,0,0,1-2.49,6.7C38.51,99.82,31.27,107.84,16,107.84a2.57,2.57,0,1,1,0-5.14c23.32,0,24.31-21.5,24.35-24,0,0,0-.08,0-.11a2.46,2.46,0,0,0,0-.28c0-.08,0-.16,0-.23s0-.16-.07-.24a1.86,1.86,0,0,0-.1-.25,2,2,0,0,0-.11-.2,1.58,1.58,0,0,0-.15-.24.47.47,0,0,0-.06-.09,36.42,36.42,0,0,1-3.3-5,3.75,3.75,0,0,0-.24-.44,36.43,36.43,0,0,1,3.16-39.29A46.51,46.51,0,0,0,68.38,42.51,46.45,46.45,0,0,0,97.29,32.43a36.38,36.38,0,0,1-.36,44.66l-.06.1a1.76,1.76,0,0,0-.14.23l-.12.21-.09.24c0,.08,0,.16-.07.24a2,2,0,0,0,0,.24,2.45,2.45,0,0,0,0,.27s0,.08,0,.12C96.43,81.19,97.51,102.7,120.74,102.7Zm8.33-18.93c-10.39,0-18.27-3.64-23.46-10.8A40.82,40.82,0,0,0,108,67.18c3.54,6.49,10.22,11.45,21.11,11.45a2.57,2.57,0,0,1,0,5.14Z"/><path class="cls-1" d="M87.26,57.16a2.63,2.63,0,1,0,2.63,2.62A2.62,2.62,0,0,0,87.26,57.16Z"/></g></g></svg>