<svg xmlns="http://www.w3.org/2000/svg" viewBox="0 0 73 60.76"><defs><style>.cls-1,.cls-2{fill:#fff;}.cls-2{stroke:#fff;stroke-linecap:round;stroke-linejoin:round;}</style></defs><g id="Capa_2" data-name="Capa 2"><g id="Elementos_superiores" data-name="Elementos superiores"><path class="cls-1" d="M35.87,36.38a5.35,5.35,0,1,0,5.34,5.34A5.35,5.35,0,0,0,35.87,36.38Zm0,8.44a3.1,3.1,0,1,1,3.1-3.1A3.09,3.09,0,0,1,35.87,44.82Z"/><path class="cls-1" d="M27.62,36.36a1.15,1.15,0,1,0,1.15,1.15A1.15,1.15,0,0,0,27.62,36.36Z"/><path class="cls-1" d="M62.4,43.5c-7.07,0-8.22-5.47-8.38-7.87,0-.14,0-.28,0-.42a18.16,18.16,0,0,0-4.52-12c-.26-.29-.53-.58-.8-.85l0,0-.24-.22c-.26-.25-.53-.5-.81-.74a18.78,18.78,0,0,0-1.76-1.32,18,18,0,0,0-7-2.75l1.47-.4h0a2.81,2.81,0,1,0-3.44-3.44l-1,3.59h0l-1-3.59a2.81,2.81,0,1,0-3.44,3.44l1.47.4a18.09,18.09,0,0,0-7,2.74c-.34.23-.67.46-1,.71a18.9,18.9,0,0,0-2.55,2.35l-.11.12a18.16,18.16,0,0,0-4.52,12c0,.18,0,.36,0,.53-.19,2.39-1.4,7.76-8.37,7.76a3.37,3.37,0,1,0,0,6.74c5.86,0,9.39-2.41,11.47-4.88.18.26.36.52.56.78C21.26,48.09,20.31,54,13,54a3.37,3.37,0,0,0,0,6.74c7.81,0,11.55-4.18,13.32-7.69a17.79,17.79,0,0,0,.82-2,18.08,18.08,0,0,0,17.49,0,16.37,16.37,0,0,0,.83,2c1.77,3.5,5.51,7.68,13.31,7.68a3.37,3.37,0,1,0,0-6.74c-7.29,0-8.26-5.94-8.38-7.89l.55-.78c2.08,2.47,5.6,4.89,11.47,4.89a3.37,3.37,0,0,0,0-6.74ZM35.87,19.3a15.83,15.83,0,0,1,7.31,1.79,13.66,13.66,0,0,1-14.62,0A15.83,15.83,0,0,1,35.87,19.3ZM9.35,48a1.13,1.13,0,0,1,0-2.25c4.75,0,7.66-2.17,9.22-5a18,18,0,0,0,1,2.54C17.33,46.4,13.89,48,9.35,48Zm49.41,8.27a1.13,1.13,0,0,1,0,2.25c-6.66,0-9.82-3.5-11.31-6.44a15.35,15.35,0,0,1-1.09-2.94.14.14,0,0,0,0-.06.56.56,0,0,0,0-.12l-.06-.1s0,0,0-.06l0,0-.08-.09L46,48.59,46,48.52l-.09-.06-.1-.05-.09,0-.11,0-.1,0-.12,0h-.2l-.12,0h0l-.07,0-.11,0-.1,0-.07,0a15.88,15.88,0,0,1-17.55,0l-.06,0-.11-.06-.11,0-.07,0h0l-.12,0h-.32l-.1,0-.11,0-.09,0-.1.05-.08.06a.73.73,0,0,0-.09.08.23.23,0,0,0-.07.07.39.39,0,0,0-.08.1l0,0,0,.06-.06.11a.49.49,0,0,0,0,.11.14.14,0,0,0,0,.07,15.16,15.16,0,0,1-1.09,2.92C22.82,55,19.65,58.51,13,58.51a1.13,1.13,0,0,1,0-2.25c10.2,0,10.63-9.39,10.65-10.46a.43.43,0,0,0,0,0,.49.49,0,0,0,0-.12s0-.07,0-.11a.42.42,0,0,0,0-.1.49.49,0,0,0,0-.11l0-.09-.07-.1,0,0A16.9,16.9,0,0,1,22,42.92a1,1,0,0,0-.11-.2,15.92,15.92,0,0,1,1.39-17.17,20.32,20.32,0,0,0,25.28,0,15.9,15.9,0,0,1,3.27,9.66,15.68,15.68,0,0,1-3.43,9.86l0,0-.07.09a.31.31,0,0,1,0,.1l0,.1a.49.49,0,0,0,0,.11s0,.07,0,.1a.49.49,0,0,0,0,.12s0,0,0,0C48.13,46.86,48.61,56.26,58.76,56.26ZM62.4,48c-4.54,0-8-1.59-10.25-4.72a16.73,16.73,0,0,0,1-2.53c1.55,2.84,4.47,5,9.23,5a1.13,1.13,0,0,1,0,2.25Z"/><path class="cls-1" d="M44.13,36.36a1.15,1.15,0,1,0,1.15,1.15A1.14,1.14,0,0,0,44.13,36.36Z"/><path class="cls-2" d="M8.76,16a.17.17,0,0,1-.1.07.12.12,0,0,1-.12,0,.1.1,0,0,1-.06-.1.14.14,0,0,1,0-.12l2.24-3.22a.17.17,0,0,1,.1-.07.16.16,0,0,1,.12,0,.19.19,0,0,1,.07.11.15.15,0,0,1,0,.11Zm5.52,1.45a.19.19,0,0,1-.11.07.27.27,0,0,1-.12,0l-4.35-3,.18-.26,4.36,3a.2.2,0,0,1,.06.11A.17.17,0,0,1,14.28,17.44Z"/><path class="cls-2" d="M15.79,8.11l1.7,5.27a.12.12,0,0,1,0,.1.22.22,0,0,1-.05.08.15.15,0,0,1-.12,0,.13.13,0,0,1-.1,0s0,0,0-.07L15.45,8a.15.15,0,0,1,0-.11.19.19,0,0,1,.06-.07.24.24,0,0,1,.1,0,.16.16,0,0,1,.09,0l5.09,2.74,0,0a.14.14,0,0,1,0,.12.17.17,0,0,1-.06.11.18.18,0,0,1-.1,0,.13.13,0,0,1-.09,0L15.66,8.14Zm1.08,3.65-.12-.32,2-1.67L19,10Z"/><path class="cls-2" d="M24.22,8.8a.17.17,0,0,1-.14,0A.14.14,0,0,1,24,8.71L22,3.78a.15.15,0,0,1,0-.13.16.16,0,0,1,.09-.09.15.15,0,0,1,.13,0,.18.18,0,0,1,.09.1l2,4.92a.19.19,0,0,1,0,.13A.14.14,0,0,1,24.22,8.8Zm1.35-6.65a.17.17,0,0,1,.12,0,.14.14,0,0,1,.09.08.28.28,0,0,1,0,.13L23.63,7.05l-.2-.3,2.05-4.51A.2.2,0,0,1,25.57,2.15Zm2.29,5.19a.12.12,0,0,1-.13,0L24.32,5.47l.14-.34L27.89,7a.18.18,0,0,1,.08.09.16.16,0,0,1,0,.15A.46.46,0,0,1,27.86,7.34Z"/><path class="cls-2" d="M36.16,3.19a3.53,3.53,0,0,1-.1,1.19,2.69,2.69,0,0,1-.49,1,2.58,2.58,0,0,1-.8.67,3,3,0,0,1-1.06.3,2.83,2.83,0,0,1-1.1-.12,2.69,2.69,0,0,1-.91-.53,2.78,2.78,0,0,1-.63-.87,3.54,3.54,0,0,1-.3-1.16,3.61,3.61,0,0,1,.1-1.2,2.73,2.73,0,0,1,.49-1,2.58,2.58,0,0,1,.8-.67,2.66,2.66,0,0,1,1.07-.3,2.8,2.8,0,0,1,1.09.12,2.53,2.53,0,0,1,.91.53,2.78,2.78,0,0,1,.63.87A3.47,3.47,0,0,1,36.16,3.19Zm-.34,0a2.9,2.9,0,0,0-.41-1.33,2.36,2.36,0,0,0-.91-.84A2.45,2.45,0,0,0,33.25.83a2.32,2.32,0,0,0-1.19.43,2.16,2.16,0,0,0-.76,1,2.92,2.92,0,0,0-.19,1.38,2.93,2.93,0,0,0,.41,1.33,2.4,2.4,0,0,0,3.35.63,2.22,2.22,0,0,0,.76-1A2.92,2.92,0,0,0,35.82,3.22Z"/><path class="cls-2" d="M44.3,1.52a.12.12,0,0,1,.11.08.13.13,0,0,1,0,.1s0,0,0,.05l0,.05L42,4l.12-.21-.6,2.84a.14.14,0,0,1-.07.1.15.15,0,0,1-.13,0,.19.19,0,0,1-.11-.08.13.13,0,0,1,0-.12l.58-2.79V3.9L40.42,1a.43.43,0,0,0,0,0V.86a.19.19,0,0,1,.08-.1.3.3,0,0,1,.12,0,.18.18,0,0,1,.12.1L42,3.61l-.08,0,2.24-2A.16.16,0,0,1,44.3,1.52Z"/><path class="cls-2" d="M50.29,4.38,46.12,8a.12.12,0,0,1-.08,0,.16.16,0,0,1-.1,0,.28.28,0,0,1-.09-.1.12.12,0,0,1,0-.1.08.08,0,0,1,0-.07L50.28,4a.16.16,0,0,1,.09,0l.1,0a.3.3,0,0,1,.08.08.14.14,0,0,1,0,.09l-.51,5.76a.18.18,0,0,1-.11.14.19.19,0,0,1-.13,0,.19.19,0,0,1-.08-.07.16.16,0,0,1,0-.1l.5-5.6ZM47.36,6.8l.25-.23,2.33,1.19-.07.33Z"/><path class="cls-2" d="M53,12.37a.13.13,0,0,1-.05-.12.21.21,0,0,1,.05-.12l3.72-3.81a.17.17,0,0,1,.12-.05.16.16,0,0,1,.12.05.17.17,0,0,1,0,.12.21.21,0,0,1,0,.12L53.2,12.37a.18.18,0,0,1-.12.05A.17.17,0,0,1,53,12.37ZM59.6,11a.16.16,0,0,1,0,.11.17.17,0,0,1,0,.12.22.22,0,0,1-.11,0l-5.15-.12.19-.3,4.95.09A.17.17,0,0,1,59.6,11Zm-3.85,4.16a.13.13,0,0,1,0-.12l.37-3.87h.36L56.05,15a.28.28,0,0,1,0,.11.16.16,0,0,1-.15,0A.29.29,0,0,1,55.75,15.14Z"/><path class="cls-2" d="M58.43,18.58a.15.15,0,0,1-.13,0,.14.14,0,0,1-.1-.07.16.16,0,0,1,0-.13.2.2,0,0,1,.08-.1l4.52-2.82a.15.15,0,0,1,.13,0,.16.16,0,0,1,.1.08.15.15,0,0,1,0,.13.16.16,0,0,1-.08.1Z"/><path class="cls-1" d="M6.1,33.25c-.24,0-.49,0-.79,0-1.43,0-1.7-.2-1.7-.56A1.16,1.16,0,0,1,4,32a.16.16,0,0,0,0-.13.17.17,0,0,0-.09-.11l-.43-.18a.14.14,0,0,0-.17,0,1.86,1.86,0,0,0-.48,1.13,1.16,1.16,0,0,0,.9,1.14,7.53,7.53,0,0,0,1.74.16h.66a.15.15,0,0,0,.15-.15V33.4a.16.16,0,0,0,0-.11A.15.15,0,0,0,6.1,33.25Z"/><path class="cls-1" d="M4.35,29.1l-.12-.49a.12.12,0,0,0-.07-.1.17.17,0,0,0-.12,0,7.7,7.7,0,0,1-1.78.37l.06-.39c0-.16.06-.32.08-.45a.33.33,0,0,0,.22-.26.15.15,0,0,0-.14-.16l-.73-.07a.16.16,0,0,0-.17.13c0,.34-.08.76-.16,1.27H.16a.12.12,0,0,0-.11,0,.14.14,0,0,0,0,.11v.48a.15.15,0,0,0,.14.15c.17,0,.81,0,1.15,0a15.07,15.07,0,0,1-1.25,4,.13.13,0,0,0,0,.12A.16.16,0,0,0,.13,34l.51.19h0a.15.15,0,0,0,.14-.09,19.34,19.34,0,0,0,1.3-4.4,8.7,8.7,0,0,0,2.12-.4A.15.15,0,0,0,4.35,29.1Z"/><path class="cls-1" d="M3.17,30.49l.12.45a.14.14,0,0,0,.08.09l.07,0h0a7.94,7.94,0,0,1,2.43-.32.17.17,0,0,0,.11,0,.16.16,0,0,0,.05-.11v-.48a.15.15,0,0,0-.15-.15,8.71,8.71,0,0,0-2.65.37A.14.14,0,0,0,3.17,30.49Z"/><path class="cls-1" d="M7.28,29.26c.59,0,1.37,0,2,0-.27.18-.53.37-.74.53a.14.14,0,0,0-.06.12.14.14,0,0,0,.07.12l.41.26.08,0a.16.16,0,0,0,.09,0,5.71,5.71,0,0,1,2.33-1.18.15.15,0,0,0,.13-.16l-.06-.53a.13.13,0,0,0-.06-.11.16.16,0,0,0-.12,0,23.89,23.89,0,0,1-4,.22.17.17,0,0,0-.16.16c0,.13,0,.36,0,.49A.15.15,0,0,0,7.28,29.26Z"/><path class="cls-1" d="M11.87,32.85a.13.13,0,0,0-.12,0A11.87,11.87,0,0,1,9.57,33a6,6,0,0,1-1.13-.08c-.5-.11-.78-.4-.78-.79A1.82,1.82,0,0,1,8.25,31a.18.18,0,0,0,0-.13.16.16,0,0,0-.08-.1l-.42-.22a.14.14,0,0,0-.17,0,2.42,2.42,0,0,0-.78,1.64A1.53,1.53,0,0,0,8.2,33.7a8.34,8.34,0,0,0,1.44.1,12.69,12.69,0,0,0,2.2-.17.14.14,0,0,0,.12-.16l0-.51A.17.17,0,0,0,11.87,32.85Z"/><path class="cls-1" d="M58.62,30.89l.31.16.06,0a.14.14,0,0,0,.12-.06,3.58,3.58,0,0,0,.47-1.87.14.14,0,0,0-.12-.14L59.12,29A.2.2,0,0,0,59,29a.16.16,0,0,0,0,.11,2.91,2.91,0,0,1-.39,1.58.17.17,0,0,0,0,.12A.14.14,0,0,0,58.62,30.89Z"/><path class="cls-1" d="M65.51,32.81a1.2,1.2,0,0,1-.34-.14.14.14,0,0,0-.15,0,.15.15,0,0,0-.08.13,2.65,2.65,0,0,1,0,.63h-.68V32a.09.09,0,0,0,.06,0h1.15a.14.14,0,0,0,.14-.14v-.4a.14.14,0,0,0-.14-.14H64.7v-.62h.71a.14.14,0,0,0,.14-.14v-.41a.14.14,0,0,0-.14-.14H64.7v-.48a.25.25,0,0,0,.13-.17.11.11,0,0,0,0-.11.12.12,0,0,0-.1-.05l-.56,0a.14.14,0,0,0-.11,0,.15.15,0,0,0,0,.11v.71H62.73v-.48a.25.25,0,0,0,.13-.17.11.11,0,0,0,0-.11.12.12,0,0,0-.1-.05l-.55,0a.14.14,0,0,0-.11,0,.16.16,0,0,0,0,.11v.71h-.69c.1-.25.2-.49.28-.7a.23.23,0,0,0,.15-.11.16.16,0,0,0,0-.12l0-.06H63v.69a.15.15,0,0,0,.14.15h.44a.15.15,0,0,0,.14-.15V29h1.44a.14.14,0,0,0,.14-.14v-.39a.15.15,0,0,0-.14-.15H63.71v-.35a.23.23,0,0,0,.14-.19.26.26,0,0,0,0-.11.14.14,0,0,0-.1-.05l-.58,0a.13.13,0,0,0-.1,0,.12.12,0,0,0,0,.1v.59h-1.4a.15.15,0,0,0-.14.15v.39h0l-.21-.1h-.12a.16.16,0,0,0-.08.1c-.08.28-.21.66-.34,1V27.91a.23.23,0,0,0,.13-.18.26.26,0,0,0,0-.11.19.19,0,0,0-.1-.05h-.1l-.45,0a.1.1,0,0,0-.1,0,.12.12,0,0,0,0,.1v2.37a4.9,4.9,0,0,1-1,3.57.16.16,0,0,0,0,.22,1.42,1.42,0,0,1,.28.27.13.13,0,0,0,.1.06h0a.15.15,0,0,0,.1,0,4,4,0,0,0,1-1.71c.23.29.47.6.58.78a.19.19,0,0,0,.11.07.17.17,0,0,0,.12,0l.31-.34a.14.14,0,0,0,0-.18c-.14-.18-.69-.84-1-1.12a10.93,10.93,0,0,0,.08-1.12l.16.08a.11.11,0,0,0,.08,0h0a.14.14,0,0,0,.11-.07c0-.08.08-.16.12-.25v.24a.14.14,0,0,0,.14.14H62v.62h-.69a.14.14,0,0,0-.14.14v.4a.14.14,0,0,0,.14.14h.87A1.54,1.54,0,0,1,61,33.56a.14.14,0,0,0-.1.11.16.16,0,0,0,0,.14.68.68,0,0,1,.21.27.14.14,0,0,0,.13.09h0A2.15,2.15,0,0,0,62.92,32a.18.18,0,0,0,.07-.05h.5v1.44c0,.54.18.72.74.72h.68c.55,0,.66-.37.7-1.13A.15.15,0,0,0,65.51,32.81ZM64,30.63v.62H62.73v-.62Z"/><path class="cls-1" d="M72.9,29.66a.13.13,0,0,0-.07-.09.11.11,0,0,0-.11,0,9.63,9.63,0,0,1-2,.43c0-.15-.11-.36-.18-.62A7.92,7.92,0,0,0,72.28,29a.14.14,0,0,0,.09-.17l-.12-.42a.16.16,0,0,0-.07-.09.13.13,0,0,0-.12,0,7.08,7.08,0,0,1-1.66.37c0-.21-.07-.44-.1-.62a.25.25,0,0,0,.17-.25.14.14,0,0,0-.14-.14h-.7s-.08,0-.11.05a.11.11,0,0,0,0,.11c0,.28.09.58.15.92-.18,0-.4,0-.61,0s-.74,0-1.15,0a.11.11,0,0,0-.1,0,.16.16,0,0,0,0,.11v.42a.14.14,0,0,0,.14.14c.32,0,.79,0,1.16,0s.52,0,.76,0a6.13,6.13,0,0,0,.18.63c-.49,0-1,0-1.48,0h-1l-.1,0a.15.15,0,0,0,0,.11v.43a.13.13,0,0,0,.13.13h1c.8,0,1.3,0,1.75-.06a2.89,2.89,0,0,0,.29.45h-.44a.24.24,0,0,0-.11.06.16.16,0,0,0,0,.12l.09.37a.14.14,0,0,0,.15.11,3.73,3.73,0,0,1,1,.07l.33.17.08,0h.06a.14.14,0,0,0,.12-.06L72,31.7a.15.15,0,0,0,0-.13.13.13,0,0,0-.09-.09,2.23,2.23,0,0,1-.93-.82,9.91,9.91,0,0,0,1.86-.4.16.16,0,0,0,.1-.17Z"/><path class="cls-1" d="M71.66,33.13c-.54,0-1.06.06-1.5.06s-1.33-.06-1.33-.56c0-.21.22-.45.56-.63a.14.14,0,0,0,.07-.11.15.15,0,0,0,0-.12l-.31-.31a.12.12,0,0,0-.17,0,1.53,1.53,0,0,0-.87,1.19,1,1,0,0,0,.28.73,2.54,2.54,0,0,0,1.81.55c.65,0,1.11,0,1.51,0a.15.15,0,0,0,.13-.14v-.45a.14.14,0,0,0-.15-.15Z"/></g></g></svg>