<svg xmlns="http://www.w3.org/2000/svg" viewBox="0 0 167 138.3"><defs><style>.cls-1{fill:#c23600;}.cls-2,.cls-3{fill:#fff;}.cls-2{stroke:#fff;stroke-linecap:round;stroke-linejoin:round;}</style></defs><g id="Capa_2" data-name="Capa 2"><g id="Elementos_superiores" data-name="Elementos superiores"><path class="cls-1" d="M82.06,82.54A12.22,12.22,0,1,0,94.28,94.76,12.23,12.23,0,0,0,82.06,82.54Zm0,19.3a7.08,7.08,0,1,1,7.08-7.08A7.09,7.09,0,0,1,82.06,101.84Z"/><path class="cls-1" d="M63.19,82.48a2.63,2.63,0,1,0,2.63,2.63A2.63,2.63,0,0,0,63.19,82.48Z"/><path class="cls-1" d="M142.75,98.81c-16.17,0-18.8-12.52-19.17-18,0-.32,0-.64,0-1a41.45,41.45,0,0,0-10.34-27.43c-.59-.67-1.2-1.31-1.83-1.94l-.08-.09c-.18-.17-.37-.33-.55-.51q-.9-.87-1.86-1.68a39.64,39.64,0,0,0-4-3,41.08,41.08,0,0,0-16.12-6.29L92.15,38h0a6.43,6.43,0,1,0-7.88-7.87l-2.2,8.21h0l-2.2-8.21A6.43,6.43,0,1,0,72,38l3.36.91a41.12,41.12,0,0,0-16.12,6.28c-.77.51-1.53,1-2.27,1.6a41.84,41.84,0,0,0-5.82,5.39l-.26.27A41.45,41.45,0,0,0,40.52,79.85c0,.41,0,.82,0,1.23-.44,5.45-3.22,17.73-19.15,17.73a7.71,7.71,0,1,0,0,15.42c13.4,0,21.47-5.51,26.22-11.15.41.6.84,1.19,1.28,1.77-.26,4.46-2.44,18-19.17,18a7.71,7.71,0,1,0,0,15.42c17.85,0,26.41-9.56,30.45-17.58a40.6,40.6,0,0,0,1.88-4.48,41.41,41.41,0,0,0,40,0,38.38,38.38,0,0,0,1.89,4.5c4,8,12.61,17.57,30.45,17.57a7.71,7.71,0,1,0,0-15.42c-16.66,0-18.9-13.59-19.18-18.06.44-.58.87-1.16,1.27-1.76,4.75,5.65,12.82,11.17,26.24,11.17a7.71,7.71,0,1,0,0-15.42ZM82.05,43.45a36.14,36.14,0,0,1,16.73,4.1,31.16,31.16,0,0,1-33.44,0A36.23,36.23,0,0,1,82.05,43.45ZM21.4,109.09a2.57,2.57,0,0,1,0-5.14c10.85,0,17.52-5,21.08-11.45a41.18,41.18,0,0,0,2.35,5.82C39.64,105.46,31.77,109.09,21.4,109.09Zm113,18.93a2.57,2.57,0,1,1,0,5.14c-15.22,0-22.47-8-25.86-14.75a33.5,33.5,0,0,1-2.49-6.71l-.06-.14a1.43,1.43,0,0,0-.09-.27,1.71,1.71,0,0,0-.13-.23.61.61,0,0,0-.07-.14l0-.06-.18-.22a1.29,1.29,0,0,0-.16-.17l-.19-.16-.2-.15-.23-.11-.21-.11-.26-.07-.21-.06-.27,0h-.23l-.25,0-.26,0h-.08c-.06,0-.1,0-.15.05l-.26.1c-.08,0-.16.08-.24.12l-.13.08a36.39,36.39,0,0,1-40.17,0l-.14-.08-.24-.12-.26-.1-.15,0h-.07l-.28,0-.24,0-.24,0-.26,0-.21.06a1.12,1.12,0,0,0-.26.08l-.21.09-.23.12-.19.14-.2.17a1.1,1.1,0,0,0-.15.16,2.11,2.11,0,0,0-.19.23l0,.06s0,.09-.07.13a2,2,0,0,0-.13.25,1.84,1.84,0,0,0-.09.25l-.06.15a32.67,32.67,0,0,1-2.49,6.7C52.2,125.14,45,133.16,29.73,133.16a2.57,2.57,0,0,1,0-5.14c23.31,0,24.31-21.5,24.34-24a.41.41,0,0,0,0-.11l0-.28a1.85,1.85,0,0,0,0-.23,2.17,2.17,0,0,0-.07-.24l-.09-.24-.11-.21-.15-.24-.06-.09a36.39,36.39,0,0,1-3.31-4.94A2,2,0,0,0,50,97a36.39,36.39,0,0,1,3.17-39.28,46.56,46.56,0,0,0,57.84,0,36.41,36.41,0,0,1-.36,44.65s0,.07-.06.1-.1.15-.15.23a1.51,1.51,0,0,0-.11.22,1.57,1.57,0,0,0-.09.23,1.82,1.82,0,0,0-.07.25,1.57,1.57,0,0,0,0,.23,2.48,2.48,0,0,0,0,.27.48.48,0,0,0,0,.12C110.11,106.51,111.19,128,134.42,128Zm8.33-18.93c-10.39,0-18.27-3.64-23.45-10.8a40.29,40.29,0,0,0,2.34-5.79C125.19,99,131.86,104,142.75,104a2.57,2.57,0,1,1,0,5.14Z"/><path class="cls-1" d="M101,82.48a2.63,2.63,0,1,0,2.63,2.63A2.63,2.63,0,0,0,101,82.48Z"/><path class="cls-2" d="M21.46,36.34a1.16,1.16,0,0,1-.71.49,1,1,0,0,1-.82-.18,1,1,0,0,1-.44-.7,1.17,1.17,0,0,1,.22-.83l4.7-6.74a1.18,1.18,0,0,1,.7-.49,1.05,1.05,0,0,1,.83.18,1,1,0,0,1,.44.71,1.19,1.19,0,0,1-.22.82Zm11.22,2.84a1.19,1.19,0,0,1-.76.51,1,1,0,0,1-.85-.19l-8.8-6.14,1.37-2,8.81,6.14a1,1,0,0,1,.46.74A1.24,1.24,0,0,1,32.68,39.18Z"/><path class="cls-2" d="M37.7,19.12l2.88,9.8a1.2,1.2,0,0,1,0,.67,1,1,0,0,1-.33.52.92.92,0,0,1-.75.26,1,1,0,0,1-.62-.38,1.09,1.09,0,0,1-.18-.3L35.28,18.21a1.14,1.14,0,0,1,0-.73,1,1,0,0,1,.4-.55,1.1,1.1,0,0,1,.61-.24,1,1,0,0,1,.66.16l10.4,5.49a1.32,1.32,0,0,1,.36.28,1,1,0,0,1,.25.82,1,1,0,0,1-.36.68,1,1,0,0,1-.59.23,1.32,1.32,0,0,1-.68-.17l-9-4.63Zm1.89,7.69L39,24.52l3.86-3.17,1.63,1.42Z"/><path class="cls-2" d="M55.75,19.31a1.09,1.09,0,0,1-1.49-.61l-4.1-9.87a1.12,1.12,0,0,1,0-.88,1.15,1.15,0,0,1,.66-.62,1.11,1.11,0,0,1,.89,0,1.14,1.14,0,0,1,.59.63l4.1,9.88a1.07,1.07,0,0,1,0,.86A1.14,1.14,0,0,1,55.75,19.31ZM58.13,4.19a.92.92,0,0,1,.82.06,1.08,1.08,0,0,1,.54.56,1,1,0,0,1,0,.8l-4.31,9.82L54.05,13l3.41-8.09A1.3,1.3,0,0,1,58.13,4.19Zm4.8,12.14a1,1,0,0,1-.93-.08L55.89,12.7l.9-2.24,6.33,3.71a1.28,1.28,0,0,1,.53.6,1,1,0,0,1,0,.92A1.36,1.36,0,0,1,62.93,16.33Z"/><path class="cls-2" d="M82.31,6.6a7.12,7.12,0,0,1-.23,2.62A6.4,6.4,0,0,1,81,11.45a6,6,0,0,1-1.86,1.61,6.14,6.14,0,0,1-7.13-.8,6.7,6.7,0,0,1-1.49-2,7.08,7.08,0,0,1-.69-2.54A7.1,7.1,0,0,1,70,5.11a6.76,6.76,0,0,1,1.11-2.23,6.16,6.16,0,0,1,9-.81,6.58,6.58,0,0,1,1.49,2A7.08,7.08,0,0,1,82.31,6.6Zm-2.4.21a4.84,4.84,0,0,0-.7-2.19,4.06,4.06,0,0,0-1.5-1.47,3.74,3.74,0,0,0-4,.36,4.05,4.05,0,0,0-1.21,1.71,5.07,5.07,0,0,0-.29,2.29,5.27,5.27,0,0,0,.69,2.2,4.06,4.06,0,0,0,1.5,1.47,3.49,3.49,0,0,0,2.06.41,3.56,3.56,0,0,0,2-.77A4.13,4.13,0,0,0,79.62,9.1,5,5,0,0,0,79.91,6.81Z"/><path class="cls-2" d="M101,2.72a1.09,1.09,0,0,1,.69.47,1.12,1.12,0,0,1,.17.88,1.75,1.75,0,0,1-.12.32,1.26,1.26,0,0,1-.22.31l-5.34,5,.59-1.18-1.08,5.2a1,1,0,0,1-.48.72,1,1,0,0,1-.8.17,1,1,0,0,1-.7-.48,1.1,1.1,0,0,1-.16-.85l1-5.06,0,.61-2.84-6a1.6,1.6,0,0,1-.16-.5,1.16,1.16,0,0,1,0-.42,1,1,0,0,1,.55-.72A1.22,1.22,0,0,1,93,1.07a1.11,1.11,0,0,1,.78.69L96.3,7.28l-.5-.18,4.18-4A1.13,1.13,0,0,1,101,2.72Z"/><path class="cls-2" d="M114.56,11.28l-7.87,6.5a1.2,1.2,0,0,1-.6.31,1,1,0,0,1-.61-.1.92.92,0,0,1-.53-.59,1,1,0,0,1,.1-.72,1.28,1.28,0,0,1,.21-.28l9.18-7.71a1.27,1.27,0,0,1,.67-.3,1,1,0,0,1,.66.16,1.05,1.05,0,0,1,.46.45,1.12,1.12,0,0,1,.12.68L115.4,21.4a1.34,1.34,0,0,1-.12.44,1.05,1.05,0,0,1-.65.56,1.06,1.06,0,0,1-.77-.07.94.94,0,0,1-.44-.46,1.28,1.28,0,0,1-.12-.68L114,11.13ZM108.24,16l1.88-1.42,4.44,2.3-.67,2Z"/><path class="cls-2" d="M121.51,28a1.09,1.09,0,0,1-.37-.81,1.13,1.13,0,0,1,.33-.8l7.46-7.66a1.08,1.08,0,0,1,.8-.35,1.18,1.18,0,0,1,.84.36,1.09,1.09,0,0,1,0,1.6L123.13,28a1.07,1.07,0,0,1-.79.35A1.1,1.1,0,0,1,121.51,28Zm14.82-3.77a.87.87,0,0,1,.28.77,1.19,1.19,0,0,1-.31.72,1,1,0,0,1-.74.29l-10.73-.09,1.78-2,8.78,0A1.22,1.22,0,0,1,136.33,24.18Zm-9.25,9.19a1,1,0,0,1-.3-.88l.86-7,2.4-.06-.9,7.28a1.23,1.23,0,0,1-.35.72,1.06,1.06,0,0,1-.86.34A1.31,1.31,0,0,1,127.08,33.37Z"/><path class="cls-2" d="M134.69,42.05a1,1,0,0,1-.87.12,1.11,1.11,0,0,1-.7-.51,1.1,1.1,0,0,1-.17-.88,1.12,1.12,0,0,1,.51-.7l9.07-5.67a1.05,1.05,0,0,1,.86-.14,1.19,1.19,0,0,1,.87,1.39,1.07,1.07,0,0,1-.5.71Z"/><path class="cls-3" d="M14,75.37c-.54,0-1.13.06-1.81.06-3.27,0-3.89-.45-3.89-1.28A2.77,2.77,0,0,1,9,72.55.34.34,0,0,0,8.9,72l-1-.43a.34.34,0,0,0-.4.1,4.29,4.29,0,0,0-1.1,2.58,2.64,2.64,0,0,0,2.07,2.6,16.54,16.54,0,0,0,4,.37c.51,0,1,0,1.52,0a.35.35,0,0,0,.33-.34V75.71a.33.33,0,0,0-.11-.25A.31.31,0,0,0,14,75.37Z"/><path class="cls-3" d="M10,65.88l-.26-1.13a.36.36,0,0,0-.17-.23.39.39,0,0,0-.28,0,17.4,17.4,0,0,1-4.07.86c0-.32.1-.62.15-.91s.11-.72.16-1A.72.72,0,0,0,6,62.84a.34.34,0,0,0-.31-.37L4,62.3a.35.35,0,0,0-.38.31c-.07.78-.2,1.73-.38,2.89H.36a.32.32,0,0,0-.25.09.36.36,0,0,0-.11.25L0,67a.34.34,0,0,0,.33.34c.37,0,1.85,0,2.62,0A34.31,34.31,0,0,1,.1,76.53a.34.34,0,0,0,0,.28.36.36,0,0,0,.2.2l1.18.44a.25.25,0,0,0,.12,0,.34.34,0,0,0,.31-.19,43.8,43.8,0,0,0,3-10.07,21,21,0,0,0,4.86-.93A.35.35,0,0,0,10,65.88Z"/><path class="cls-3" d="M7.26,69.06l.27,1a.39.39,0,0,0,.17.21.47.47,0,0,0,.16,0l.11,0a18.12,18.12,0,0,1,5.56-.72.36.36,0,0,0,.24-.1.32.32,0,0,0,.11-.24V68.13a.35.35,0,0,0-.34-.34,20.46,20.46,0,0,0-6.06.85A.35.35,0,0,0,7.26,69.06Z"/><path class="cls-3" d="M16.65,66.25c1.34,0,3.13,0,4.5-.09-.6.39-1.21.83-1.69,1.2a.31.31,0,0,0-.13.28.32.32,0,0,0,.16.27l.93.59a.32.32,0,0,0,.18.06.37.37,0,0,0,.22-.08c1.13-.9,3.53-2.48,5.33-2.69a.35.35,0,0,0,.3-.38l-.13-1.21a.35.35,0,0,0-.14-.25.39.39,0,0,0-.28-.05c-2.54.61-8.67.54-9.25.52a.3.3,0,0,0-.25.1.32.32,0,0,0-.1.26c0,.29,0,.82,0,1.12A.35.35,0,0,0,16.65,66.25Z"/><path class="cls-3" d="M27.15,74.45a.32.32,0,0,0-.27-.06,27.42,27.42,0,0,1-5,.43,12.66,12.66,0,0,1-2.6-.19c-1.13-.25-1.78-.9-1.78-1.79a4.14,4.14,0,0,1,1.35-2.68.34.34,0,0,0-.09-.54l-1-.49a.33.33,0,0,0-.4.06,5.51,5.51,0,0,0-1.77,3.75c0,1.76,1.13,3,3.11,3.46a18.71,18.71,0,0,0,3.28.22,30.47,30.47,0,0,0,5-.38.35.35,0,0,0,.28-.36l-.08-1.18A.35.35,0,0,0,27.15,74.45Z"/><path class="cls-3" d="M134.1,70l.7.38a.42.42,0,0,0,.16,0,.33.33,0,0,0,.25-.13A8,8,0,0,0,136.29,66a.32.32,0,0,0-.27-.33l-.77-.11a.33.33,0,0,0-.25.08.3.3,0,0,0-.12.24,6.66,6.66,0,0,1-.88,3.63.32.32,0,0,0-.06.27A.31.31,0,0,0,134.1,70Z"/><path class="cls-3" d="M149.86,74.37a2.92,2.92,0,0,1-.77-.33.32.32,0,0,0-.34,0,.31.31,0,0,0-.18.28,7.58,7.58,0,0,1-.12,1.46H146.9a.22.22,0,0,1,0-.09v-3.2a.56.56,0,0,0,.14-.09h2.63A.32.32,0,0,0,150,72v-.92a.32.32,0,0,0-.32-.32H148V69.38h1.61a.33.33,0,0,0,.32-.33v-.93a.33.33,0,0,0-.32-.33H148V66.7a.53.53,0,0,0,.29-.39.32.32,0,0,0-.07-.25.29.29,0,0,0-.23-.12l-1.28-.1a.34.34,0,0,0-.24.09.32.32,0,0,0-.11.24v1.62h-2.87V66.7a.53.53,0,0,0,.29-.39.32.32,0,0,0-.06-.25.31.31,0,0,0-.24-.12l-1.26-.1a.34.34,0,0,0-.24.09.32.32,0,0,0-.11.24v1.62H140.3c.24-.55.47-1.12.64-1.59a.6.6,0,0,0,.36-.26.39.39,0,0,0,0-.26.36.36,0,0,0-.1-.14h2.88v1.58a.32.32,0,0,0,.32.32h1a.32.32,0,0,0,.33-.32V65.54h3.29a.32.32,0,0,0,.32-.32v-.91a.32.32,0,0,0-.32-.32h-3.29v-.83a.51.51,0,0,0,.3-.41.29.29,0,0,0-.07-.25.33.33,0,0,0-.23-.12l-1.31-.08a.34.34,0,0,0-.24.09.31.31,0,0,0-.1.24V64h-3.2a.32.32,0,0,0-.33.32v.91h0l-.5-.22a.34.34,0,0,0-.45.22,22.12,22.12,0,0,1-.78,2.28V63.16a.52.52,0,0,0,.29-.41.32.32,0,0,0-.06-.25.37.37,0,0,0-.24-.12h-.23c-.21,0-.49,0-1-.07a.34.34,0,0,0-.25.09.35.35,0,0,0-.1.24v5.43c0,2.72-.18,5.82-2.39,8.16a.34.34,0,0,0-.09.27.36.36,0,0,0,.16.24,2.75,2.75,0,0,1,.62.61.28.28,0,0,0,.24.13h0a.31.31,0,0,0,.24-.1,9.32,9.32,0,0,0,2.21-3.9,20,20,0,0,1,1.33,1.79.3.3,0,0,0,.24.15.31.31,0,0,0,.27-.1l.72-.76a.32.32,0,0,0,0-.42c-.31-.41-1.59-1.91-2.17-2.56a22.93,22.93,0,0,0,.17-2.57l.38.2a.37.37,0,0,0,.18,0h.05a.35.35,0,0,0,.24-.17c.09-.17.18-.37.27-.57v.54a.33.33,0,0,0,.33.33h1.59v1.41H140.3a.32.32,0,0,0-.33.32V72a.33.33,0,0,0,.33.33h2c-.18,2-.71,3.06-2.84,3.71a.34.34,0,0,0-.23.25.33.33,0,0,0,.12.32,2.11,2.11,0,0,1,.48.63.31.31,0,0,0,.3.2h.1c2.73-.88,3.45-2.5,3.71-5a.49.49,0,0,0,.16-.1h1.15v3.28c0,1.25.4,1.65,1.68,1.65h1.57c1.24,0,1.5-.84,1.59-2.59A.32.32,0,0,0,149.86,74.37Zm-3.48-5v1.41h-2.87V69.38Z"/><path class="cls-3" d="M166.77,67.16a.32.32,0,0,0-.16-.22.33.33,0,0,0-.26,0,22.13,22.13,0,0,1-4.54,1c-.12-.35-.26-.82-.41-1.42a18.21,18.21,0,0,0,3.95-.86.32.32,0,0,0,.2-.39l-.26-1a.34.34,0,0,0-.17-.2.32.32,0,0,0-.27,0,15.69,15.69,0,0,1-3.79.85c-.09-.48-.17-1-.23-1.41a.6.6,0,0,0,.38-.58.32.32,0,0,0-.32-.32l-1.61,0a.25.25,0,0,0-.24.11A.35.35,0,0,0,159,63c.09.64.21,1.33.35,2.11-.4,0-.91,0-1.4,0-.67,0-1.69,0-2.62,0a.3.3,0,0,0-.24.09.31.31,0,0,0-.1.24v1a.32.32,0,0,0,.31.32c.74,0,1.81,0,2.66,0,.58,0,1.18,0,1.73-.07.1.39.26,1,.41,1.44-1.11.07-2.21.07-3.37.07-.78,0-1.68,0-2.38,0a.41.41,0,0,0-.23.09.33.33,0,0,0-.1.24l0,1a.31.31,0,0,0,.31.32c.71,0,1.57,0,2.34,0,1.81,0,3,0,4-.14a6.76,6.76,0,0,0,.67,1h-1a.35.35,0,0,0-.24.14.28.28,0,0,0-.05.27l.21.86a.33.33,0,0,0,.34.24,8.7,8.7,0,0,1,2.29.15,7.88,7.88,0,0,0,.76.4l.17.09.14,0a.32.32,0,0,0,.27-.14l.62-.89a.31.31,0,0,0,0-.28.34.34,0,0,0-.2-.21,5.11,5.11,0,0,1-2.14-1.88,21.93,21.93,0,0,0,4.27-.92.32.32,0,0,0,.21-.38Z"/><path class="cls-3" d="M163.94,75.09c-1.25.09-2.44.14-3.44.14s-3-.14-3-1.28c0-.47.48-1,1.26-1.44a.32.32,0,0,0,.17-.24.33.33,0,0,0-.09-.28l-.7-.72a.33.33,0,0,0-.39,0,3.59,3.59,0,0,0-2,2.74,2.25,2.25,0,0,0,.66,1.67,5.9,5.9,0,0,0,4.13,1.25c1.49,0,2.55,0,3.45-.09a.33.33,0,0,0,.3-.32l0-1a.37.37,0,0,0-.1-.25A.38.38,0,0,0,163.94,75.09Z"/></g></g></svg>