<svg xmlns="http://www.w3.org/2000/svg" viewBox="0 0 73 61.97"><defs><style>.cls-1,.cls-2{fill:#fff;}.cls-2{font-size:8.09px;stroke:#fff;stroke-linecap:round;stroke-linejoin:round;font-family:Quicksand-Light, Quicksand;font-weight:300;}</style></defs><g id="Capa_2" data-name="Capa 2"><g id="Elementos_superiores" data-name="Elementos superiores"><path class="cls-1" d="M35.87,37.6a5.34,5.34,0,1,0,5.34,5.34A5.34,5.34,0,0,0,35.87,37.6Zm0,8.43A3.1,3.1,0,1,1,39,42.94,3.09,3.09,0,0,1,35.87,46Z"/><path class="cls-1" d="M27.62,37.57a1.15,1.15,0,1,0,1.15,1.15A1.15,1.15,0,0,0,27.62,37.57Z"/><path class="cls-1" d="M62.4,44.71c-7.07,0-8.22-5.47-8.38-7.87,0-.14,0-.28,0-.42a18.16,18.16,0,0,0-4.52-12c-.26-.29-.53-.57-.8-.85l0,0c-.07-.08-.16-.15-.24-.23-.26-.25-.53-.5-.81-.73a17.28,17.28,0,0,0-1.76-1.33,18.1,18.1,0,0,0-7-2.75l1.47-.39h0a2.81,2.81,0,1,0-3.44-3.45l-1,3.59h0l-1-3.59a2.81,2.81,0,1,0-3.44,3.45l1.47.39a18,18,0,0,0-7,2.75c-.34.22-.67.45-1,.7a18.9,18.9,0,0,0-2.55,2.35l-.11.12a18.16,18.16,0,0,0-4.52,12c0,.18,0,.36,0,.54-.19,2.38-1.4,7.75-8.37,7.75a3.37,3.37,0,0,0,0,6.74c5.86,0,9.39-2.41,11.47-4.88.18.27.36.52.56.78-.12,1.95-1.07,7.88-8.39,7.88A3.37,3.37,0,1,0,13,62c7.81,0,11.55-4.18,13.32-7.68a18,18,0,0,0,.82-2,18.12,18.12,0,0,0,17.49,0,16.23,16.23,0,0,0,.83,2C47.22,57.79,51,62,58.76,62a3.37,3.37,0,1,0,0-6.74c-7.29,0-8.26-5.94-8.38-7.89l.55-.77C53,49,56.53,51.45,62.4,51.45a3.37,3.37,0,0,0,0-6.74ZM35.87,20.51a15.83,15.83,0,0,1,7.31,1.79,13.61,13.61,0,0,1-14.62,0A15.83,15.83,0,0,1,35.87,20.51ZM9.35,49.2a1.12,1.12,0,0,1,0-2.24c4.75,0,7.66-2.18,9.22-5a18,18,0,0,0,1,2.54C17.33,47.62,13.89,49.2,9.35,49.2Zm49.41,8.28a1.12,1.12,0,1,1,0,2.24c-6.66,0-9.82-3.5-11.31-6.44a15.11,15.11,0,0,1-1.09-2.94.14.14,0,0,0,0-.06.36.36,0,0,0,0-.11l-.06-.11s0,0,0-.06l0,0-.08-.09a.23.23,0,0,0-.07-.07.27.27,0,0,0-.08-.07l-.09-.07-.1-.05-.09,0-.11,0-.1,0h-.32l-.12,0h0l-.07,0-.11,0-.1,0-.07,0a15.9,15.9,0,0,1-17.55,0l-.06,0-.11-.06-.11,0-.07,0h-.47l-.1,0-.11,0-.09,0-.1.06a.24.24,0,0,0-.08.06.31.31,0,0,0-.09.07.46.46,0,0,0-.07.07.39.39,0,0,0-.08.1l0,0,0,.05-.06.11a.76.76,0,0,0,0,.11.14.14,0,0,0,0,.07,15.51,15.51,0,0,1-1.09,2.93c-1.48,2.94-4.65,6.44-11.31,6.44a1.12,1.12,0,1,1,0-2.24c10.2,0,10.63-9.4,10.65-10.47,0,0,0,0,0,0a.49.49,0,0,0,0-.12s0-.07,0-.1a.49.49,0,0,0,0-.11.42.42,0,0,0,0-.1l0-.09-.07-.11,0,0A16.9,16.9,0,0,1,22,44.13a.72.72,0,0,0-.11-.19,15.94,15.94,0,0,1,1.39-17.18,20.32,20.32,0,0,0,25.28,0,15.93,15.93,0,0,1,3.27,9.66,15.68,15.68,0,0,1-3.43,9.86l0,0a.36.36,0,0,0-.07.1.41.41,0,0,1,0,.09l0,.1a.76.76,0,0,0,0,.11s0,.07,0,.1a.49.49,0,0,0,0,.12.43.43,0,0,1,0,0C48.13,48.08,48.61,57.48,58.76,57.48ZM62.4,49.2c-4.54,0-8-1.59-10.25-4.72a16.32,16.32,0,0,0,1-2.53c1.55,2.84,4.47,5,9.23,5a1.12,1.12,0,1,1,0,2.24Z"/><path class="cls-1" d="M44.13,37.57a1.15,1.15,0,0,0,0,2.3,1.15,1.15,0,0,0,0-2.3Z"/><text class="cls-2" transform="matrix(0.57, -0.82, 0.82, 0.57, 12.9, 20.63)">T</text><text class="cls-2" transform="translate(17.1 15.06) rotate(-39.6)">A</text><text class="cls-2" transform="translate(23.31 10.39) rotate(-22.38)">K</text><text class="cls-2" transform="matrix(1, -0.08, 0.08, 1, 30.6, 7.7)">O</text><text class="cls-2" transform="translate(39.12 7.46) rotate(11.83)">Y</text><text class="cls-2" transform="translate(45.54 9.05) rotate(27.16)">A</text><text class="cls-2" transform="translate(52.26 12.9) rotate(44.27)">K</text><text class="cls-2" transform="matrix(0.53, 0.85, -0.85, 0.53, 57.68, 18.91)">I</text><path class="cls-1" d="M6.1,34.46c-.24,0-.49,0-.79,0-1.43,0-1.7-.2-1.7-.56a1.18,1.18,0,0,1,.34-.7.14.14,0,0,0,0-.13.15.15,0,0,0-.09-.1l-.43-.19a.15.15,0,0,0-.17,0A1.86,1.86,0,0,0,2.81,34a1.16,1.16,0,0,0,.9,1.14,7.53,7.53,0,0,0,1.74.16h.66a.15.15,0,0,0,.15-.15v-.51a.16.16,0,0,0,0-.11A.15.15,0,0,0,6.1,34.46Z"/><path class="cls-1" d="M4.35,30.31l-.12-.49a.12.12,0,0,0-.07-.1.17.17,0,0,0-.12,0,7.66,7.66,0,0,1-1.78.38l.06-.4c0-.16.06-.31.08-.45A.31.31,0,0,0,2.62,29a.15.15,0,0,0-.14-.17l-.73-.07a.16.16,0,0,0-.17.14c0,.34-.08.75-.16,1.26H.16a.12.12,0,0,0-.11,0,.16.16,0,0,0,0,.11v.49a.14.14,0,0,0,.14.14c.17,0,.81,0,1.15,0A15,15,0,0,1,.05,35a.13.13,0,0,0,0,.12.16.16,0,0,0,.09.09l.51.19h0a.16.16,0,0,0,.14-.08,19.49,19.49,0,0,0,1.3-4.4,9.16,9.16,0,0,0,2.12-.41A.15.15,0,0,0,4.35,30.31Z"/><path class="cls-1" d="M3.17,31.7l.12.45a.14.14,0,0,0,.08.09l.07,0h0a7.94,7.94,0,0,1,2.43-.31A.18.18,0,0,0,6,31.89a.12.12,0,0,0,.05-.1V31.3a.15.15,0,0,0-.15-.15,9,9,0,0,0-2.65.37A.15.15,0,0,0,3.17,31.7Z"/><path class="cls-1" d="M7.28,30.47c.59,0,1.37,0,2,0-.27.17-.53.36-.74.52a.16.16,0,0,0-.06.12.14.14,0,0,0,.07.12l.41.26a.11.11,0,0,0,.08,0,.18.18,0,0,0,.09,0,5.83,5.83,0,0,1,2.33-1.18.15.15,0,0,0,.13-.16l-.06-.53a.14.14,0,0,0-.06-.11.16.16,0,0,0-.12,0,24.13,24.13,0,0,1-4,.23.12.12,0,0,0-.11,0,.16.16,0,0,0,0,.11c0,.13,0,.36,0,.5A.15.15,0,0,0,7.28,30.47Z"/><path class="cls-1" d="M11.87,34.06a.24.24,0,0,0-.12,0,11.87,11.87,0,0,1-2.18.19,5.27,5.27,0,0,1-1.13-.08c-.5-.11-.78-.39-.78-.78a1.82,1.82,0,0,1,.59-1.18.17.17,0,0,0,0-.12A.15.15,0,0,0,8.21,32l-.42-.22a.14.14,0,0,0-.17,0,2.42,2.42,0,0,0-.78,1.64A1.53,1.53,0,0,0,8.2,34.91a8.34,8.34,0,0,0,1.44.1,12.69,12.69,0,0,0,2.2-.17.13.13,0,0,0,.12-.15l0-.52A.24.24,0,0,0,11.87,34.06Z"/><path class="cls-1" d="M58.62,32.1l.31.16.06,0a.14.14,0,0,0,.12-.06,3.58,3.58,0,0,0,.47-1.87.14.14,0,0,0-.12-.14l-.34-.05a.15.15,0,0,0-.11,0,.12.12,0,0,0,0,.1,3,3,0,0,1-.39,1.59.14.14,0,0,0,0,.11A.13.13,0,0,0,58.62,32.1Z"/><path class="cls-1" d="M65.51,34a1.56,1.56,0,0,1-.34-.15.16.16,0,0,0-.15,0,.18.18,0,0,0-.08.13,2.8,2.8,0,0,1,0,.64h-.68V33.19l.06,0h1.15a.15.15,0,0,0,.14-.15v-.4a.14.14,0,0,0-.14-.14H64.7v-.62h.71a.14.14,0,0,0,.14-.14v-.41a.14.14,0,0,0-.14-.14H64.7v-.48a.23.23,0,0,0,.13-.17.11.11,0,0,0,0-.11.12.12,0,0,0-.1-.05l-.56,0a.15.15,0,0,0-.11,0,.12.12,0,0,0,0,.1v.71H62.73v-.48a.23.23,0,0,0,.13-.17.11.11,0,0,0,0-.11.12.12,0,0,0-.1-.05l-.55,0a.15.15,0,0,0-.11,0,.12.12,0,0,0,0,.1v.71h-.69c.1-.24.2-.49.28-.7a.21.21,0,0,0,.15-.11.14.14,0,0,0,0-.11.15.15,0,0,0,0-.06H63v.69a.15.15,0,0,0,.14.14h.44a.14.14,0,0,0,.14-.14v-.69h1.44a.15.15,0,0,0,.14-.15v-.39a.14.14,0,0,0-.14-.14H63.71v-.36a.23.23,0,0,0,.14-.18.2.2,0,0,0,0-.11.14.14,0,0,0-.1-.05l-.58,0a.13.13,0,0,0-.1,0,.14.14,0,0,0,0,.1v.6h-1.4a.14.14,0,0,0-.14.14V30h0l-.21-.09a.13.13,0,0,0-.12,0A.14.14,0,0,0,61,30c-.08.28-.21.67-.34,1V29.12a.22.22,0,0,0,.13-.17.2.2,0,0,0,0-.11.14.14,0,0,0-.1-.05h-.1l-.45,0a.12.12,0,0,0-.1,0,.14.14,0,0,0,0,.1v2.38a4.91,4.91,0,0,1-1,3.57.11.11,0,0,0,0,.11.15.15,0,0,0,.06.11,1.35,1.35,0,0,1,.28.26.11.11,0,0,0,.1.06h0a.12.12,0,0,0,.1,0,4,4,0,0,0,1-1.71c.23.29.47.61.58.79a.17.17,0,0,0,.11.06.14.14,0,0,0,.12,0l.31-.34a.14.14,0,0,0,0-.18c-.14-.18-.69-.83-1-1.12a10.93,10.93,0,0,0,.08-1.12l.16.09.08,0h0a.18.18,0,0,0,.11-.08l.12-.24v.23a.14.14,0,0,0,.14.14H62v.62h-.69a.14.14,0,0,0-.14.14V33a.15.15,0,0,0,.14.15h.87A1.53,1.53,0,0,1,61,34.77a.16.16,0,0,0-.1.11.15.15,0,0,0,0,.14.68.68,0,0,1,.21.27.14.14,0,0,0,.13.09h0a2.17,2.17,0,0,0,1.62-2.19l.07,0h.5v1.43c0,.55.18.72.74.72h.68c.55,0,.66-.36.7-1.13A.14.14,0,0,0,65.51,34ZM64,31.84v.62H62.73v-.62Z"/><path class="cls-1" d="M72.9,30.87a.13.13,0,0,0-.07-.09.14.14,0,0,0-.11,0,9.63,9.63,0,0,1-2,.43c0-.15-.11-.35-.18-.62a7.88,7.88,0,0,0,1.73-.37.15.15,0,0,0,.09-.18l-.12-.42a.16.16,0,0,0-.07-.09.13.13,0,0,0-.12,0,6.61,6.61,0,0,1-1.66.37c0-.21-.07-.43-.1-.62a.25.25,0,0,0,.17-.25.14.14,0,0,0-.14-.14h-.7a.14.14,0,0,0-.11.05.12.12,0,0,0,0,.12c0,.27.09.58.15.92L69,30c-.3,0-.74,0-1.15,0a.1.1,0,0,0-.1,0,.12.12,0,0,0,0,.1v.42a.14.14,0,0,0,.14.14c.32,0,.79,0,1.16,0s.52,0,.76,0c0,.17.11.42.18.62-.49,0-1,0-1.48,0l-1,0a.24.24,0,0,0-.1.05.12.12,0,0,0,0,.1v.43a.14.14,0,0,0,.13.14h1A16.14,16.14,0,0,0,70.22,32a3.58,3.58,0,0,0,.29.46h-.44a.16.16,0,0,0-.11.05.17.17,0,0,0,0,.12L70,33a.14.14,0,0,0,.15.1,3.73,3.73,0,0,1,1,.07l.33.18.08,0,.06,0a.14.14,0,0,0,.12-.06l.27-.39a.13.13,0,0,0,0-.12.13.13,0,0,0-.09-.1,2.23,2.23,0,0,1-.93-.82,9.91,9.91,0,0,0,1.86-.4.16.16,0,0,0,.1-.17Z"/><path class="cls-1" d="M71.66,34.34c-.54,0-1.06.06-1.5.06s-1.33-.06-1.33-.56c0-.2.22-.45.56-.63a.14.14,0,0,0,.07-.1.13.13,0,0,0,0-.12l-.31-.32a.15.15,0,0,0-.17,0,1.55,1.55,0,0,0-.87,1.2,1,1,0,0,0,.28.73,2.59,2.59,0,0,0,1.81.54c.65,0,1.11,0,1.51,0a.13.13,0,0,0,.13-.14v-.45a.14.14,0,0,0-.15-.15Z"/></g></g></svg>