<svg xmlns="http://www.w3.org/2000/svg" viewBox="0 0 167 141.13"><defs><style>.cls-1{fill:#c23600;}.cls-2{font-size:18.5px;stroke:#fff;stroke-linecap:round;stroke-linejoin:round;font-family:Quicksand-Bold, Quicksand;font-weight:700;}.cls-2,.cls-3{fill:#fff;}</style></defs><g id="Capa_2" data-name="Capa 2"><g id="Elementos_superiores" data-name="Elementos superiores"><path class="cls-1" d="M82.06,85.37A12.22,12.22,0,1,0,94.28,97.59,12.23,12.23,0,0,0,82.06,85.37Zm0,19.3a7.08,7.08,0,1,1,7.08-7.08A7.09,7.09,0,0,1,82.06,104.67Z"/><path class="cls-1" d="M63.19,85.31a2.63,2.63,0,1,0,2.63,2.63A2.63,2.63,0,0,0,63.19,85.31Z"/><path class="cls-1" d="M142.75,101.64c-16.17,0-18.8-12.51-19.17-18,0-.32,0-.64,0-1a41.49,41.49,0,0,0-10.34-27.43c-.59-.67-1.2-1.31-1.83-1.94l-.08-.08-.55-.52c-.6-.57-1.22-1.14-1.86-1.68a39.64,39.64,0,0,0-4-3,41.23,41.23,0,0,0-16.12-6.29l3.36-.9h0a6.44,6.44,0,1,0-7.88-7.88l-2.2,8.21h0l-2.2-8.21A6.44,6.44,0,1,0,72,40.81l3.36.9A41.27,41.27,0,0,0,59.21,48c-.77.51-1.53,1-2.27,1.6A42.45,42.45,0,0,0,51.12,55l-.26.27A41.49,41.49,0,0,0,40.52,82.68c0,.41,0,.82,0,1.23-.44,5.45-3.22,17.73-19.15,17.73a7.71,7.71,0,1,0,0,15.42c13.4,0,21.47-5.51,26.22-11.15.41.6.84,1.19,1.28,1.77-.26,4.46-2.44,18-19.17,18a7.71,7.71,0,1,0,0,15.42c17.85,0,26.41-9.56,30.45-17.58a41.26,41.26,0,0,0,1.88-4.47,41.48,41.48,0,0,0,40,0,39,39,0,0,0,1.89,4.49c4,8,12.61,17.57,30.45,17.57a7.71,7.71,0,1,0,0-15.42c-16.66,0-18.9-13.59-19.18-18,.44-.59.87-1.17,1.27-1.77,4.75,5.65,12.82,11.17,26.24,11.17a7.71,7.71,0,1,0,0-15.42ZM82.05,46.29a36.13,36.13,0,0,1,16.73,4.09,31.16,31.16,0,0,1-33.44,0A36.22,36.22,0,0,1,82.05,46.29ZM21.4,111.92a2.57,2.57,0,0,1,0-5.14c10.85,0,17.52-5,21.08-11.45a41.18,41.18,0,0,0,2.35,5.82C39.64,108.29,31.77,111.92,21.4,111.92Zm113,18.93a2.57,2.57,0,1,1,0,5.14c-15.22,0-22.47-8-25.86-14.75a33.5,33.5,0,0,1-2.49-6.71l-.06-.14a1.14,1.14,0,0,0-.09-.26,1.83,1.83,0,0,0-.13-.24.61.61,0,0,0-.07-.14l0-.06-.18-.22a1.29,1.29,0,0,0-.16-.17l-.19-.16-.2-.15-.23-.11a1,1,0,0,0-.21-.1,1.12,1.12,0,0,0-.26-.08l-.21-.06-.27,0-.23,0-.25,0-.26,0h-.08c-.06,0-.1,0-.15,0l-.26.1c-.08,0-.16.08-.24.12l-.13.08A36.39,36.39,0,0,1,62,113l-.14-.07-.24-.13-.26-.1-.15,0h-.07l-.28,0-.24,0-.24,0-.26,0-.21.06a1.12,1.12,0,0,0-.26.08,1.89,1.89,0,0,0-.21.09l-.23.13-.19.13-.2.17a1.1,1.1,0,0,0-.15.16l-.19.23,0,.06s0,.09-.07.13a2,2,0,0,0-.13.25,2.5,2.5,0,0,0-.09.25l-.06.15a32.67,32.67,0,0,1-2.49,6.7C52.2,128,45,136,29.73,136a2.57,2.57,0,1,1,0-5.14c23.31,0,24.31-21.5,24.34-23.95a.41.41,0,0,0,0-.11l0-.27a2,2,0,0,0,0-.24,2.17,2.17,0,0,0-.07-.24l-.09-.24-.11-.21-.15-.23-.06-.1a36.39,36.39,0,0,1-3.31-4.94,2,2,0,0,0-.24-.45,36.39,36.39,0,0,1,3.17-39.28,46.53,46.53,0,0,0,57.84,0,36.42,36.42,0,0,1-.36,44.66.47.47,0,0,0-.06.09c-.06.08-.1.15-.15.23a1.51,1.51,0,0,0-.11.22,1.57,1.57,0,0,0-.09.23,1.82,1.82,0,0,0-.07.25,1.57,1.57,0,0,0,0,.23,2.4,2.4,0,0,0,0,.28.4.4,0,0,0,0,.11C110.11,109.34,111.19,130.85,134.42,130.85Zm8.33-18.93c-10.39,0-18.27-3.63-23.45-10.8a40.29,40.29,0,0,0,2.34-5.79c3.55,6.5,10.22,11.45,21.11,11.45a2.57,2.57,0,1,1,0,5.14Z"/><path class="cls-1" d="M101,85.31a2.63,2.63,0,1,0,2.63,2.63A2.63,2.63,0,0,0,101,85.31Z"/><text class="cls-2" transform="translate(29.37 46.74) rotate(-55.11)">T</text><text class="cls-2" transform="translate(39.33 33.61) rotate(-39.41)">A</text><text class="cls-2" transform="translate(53.41 23.11) rotate(-22.54)">K</text><text class="cls-2" transform="translate(69.64 17.08) rotate(-5.16)">O</text><text class="cls-2" transform="translate(88.92 16.33) rotate(11.7)">Y</text><text class="cls-2" transform="translate(104.49 20.2) rotate(27.39)">A</text><text class="cls-2" transform="translate(119.69 29.02) rotate(44.22)">K</text><text class="cls-2" transform="matrix(0.53, 0.85, -0.85, 0.53, 131.77, 42.34)">I</text><path class="cls-3" d="M14,78.2c-.54,0-1.13.06-1.81.06-3.27,0-3.89-.45-3.89-1.28A2.8,2.8,0,0,1,9,75.38a.34.34,0,0,0-.13-.53l-1-.43a.34.34,0,0,0-.4.1,4.29,4.29,0,0,0-1.1,2.59A2.64,2.64,0,0,0,8.49,79.7a16.54,16.54,0,0,0,4,.37c.51,0,1,0,1.52,0a.34.34,0,0,0,.33-.34V78.54a.33.33,0,0,0-.11-.25A.31.31,0,0,0,14,78.2Z"/><path class="cls-3" d="M10,68.71l-.26-1.13a.36.36,0,0,0-.17-.23.39.39,0,0,0-.28,0,17.4,17.4,0,0,1-4.07.86c0-.32.1-.62.15-.91s.11-.71.16-1A.71.71,0,0,0,6,65.67a.34.34,0,0,0-.31-.37L4,65.13a.35.35,0,0,0-.38.31c-.07.78-.2,1.73-.38,2.9H1.32c-.37,0-.7,0-1,0a.32.32,0,0,0-.25.09.36.36,0,0,0-.11.26l0,1.11a.34.34,0,0,0,.33.34c.37,0,1.85,0,2.62,0A34.5,34.5,0,0,1,.1,79.37a.32.32,0,0,0,0,.27.33.33,0,0,0,.2.2l1.18.44a.25.25,0,0,0,.12,0,.34.34,0,0,0,.31-.19A43.66,43.66,0,0,0,4.87,70a20.47,20.47,0,0,0,4.86-.93A.35.35,0,0,0,10,68.71Z"/><path class="cls-3" d="M7.26,71.89l.27,1a.39.39,0,0,0,.17.21.47.47,0,0,0,.16,0l.11,0a18.12,18.12,0,0,1,5.56-.72.36.36,0,0,0,.24-.1.32.32,0,0,0,.11-.24V71a.35.35,0,0,0-.34-.35,20.14,20.14,0,0,0-6.06.86A.33.33,0,0,0,7.26,71.89Z"/><path class="cls-3" d="M16.65,69.08c1.34,0,3.13,0,4.5-.09-.6.39-1.21.83-1.69,1.2a.31.31,0,0,0-.13.28.33.33,0,0,0,.16.28l.93.59a.41.41,0,0,0,.18,0,.37.37,0,0,0,.22-.08c1.13-.9,3.53-2.48,5.33-2.69a.35.35,0,0,0,.3-.38L26.32,67a.32.32,0,0,0-.14-.24.35.35,0,0,0-.28-.06c-2.54.61-8.67.55-9.25.52a.3.3,0,0,0-.25.1.32.32,0,0,0-.1.26c0,.29,0,.82,0,1.13A.34.34,0,0,0,16.65,69.08Z"/><path class="cls-3" d="M27.15,77.28a.32.32,0,0,0-.27-.06,26.55,26.55,0,0,1-5,.43,13.6,13.6,0,0,1-2.6-.18c-1.13-.25-1.78-.91-1.78-1.8A4.17,4.17,0,0,1,18.87,73,.35.35,0,0,0,19,72.7a.36.36,0,0,0-.18-.25l-1-.49a.33.33,0,0,0-.4.06,5.51,5.51,0,0,0-1.77,3.75c0,1.76,1.13,3,3.11,3.46a18.71,18.71,0,0,0,3.28.22,30.47,30.47,0,0,0,5-.38.35.35,0,0,0,.28-.36l-.08-1.18A.35.35,0,0,0,27.15,77.28Z"/><path class="cls-3" d="M134.1,72.8l.7.37a.29.29,0,0,0,.16,0,.33.33,0,0,0,.25-.13,8,8,0,0,0,1.08-4.28.32.32,0,0,0-.27-.33l-.77-.1a.29.29,0,0,0-.25.07.3.3,0,0,0-.12.24,6.66,6.66,0,0,1-.88,3.63.32.32,0,0,0-.06.27A.36.36,0,0,0,134.1,72.8Z"/><path class="cls-3" d="M149.86,77.2a2.92,2.92,0,0,1-.77-.33.32.32,0,0,0-.34,0,.31.31,0,0,0-.18.29,7.47,7.47,0,0,1-.12,1.45H146.9a.22.22,0,0,1,0-.09v-3.2a.38.38,0,0,0,.14-.09h2.63a.32.32,0,0,0,.32-.33v-.92a.32.32,0,0,0-.32-.32H148V72.21h1.61a.33.33,0,0,0,.32-.33V71a.33.33,0,0,0-.32-.33H148V69.53a.53.53,0,0,0,.29-.39.32.32,0,0,0-.07-.25.33.33,0,0,0-.23-.12l-1.28-.1a.34.34,0,0,0-.24.09.32.32,0,0,0-.11.24v1.62h-2.87V69.53a.53.53,0,0,0,.29-.39.32.32,0,0,0-.06-.25.35.35,0,0,0-.24-.12l-1.26-.1a.34.34,0,0,0-.24.09.32.32,0,0,0-.11.24v1.62H140.3c.24-.55.47-1.12.64-1.59a.6.6,0,0,0,.36-.26.38.38,0,0,0,0-.26.36.36,0,0,0-.1-.14h2.88V70a.32.32,0,0,0,.32.33h1a.33.33,0,0,0,.33-.33V68.37h3.29a.32.32,0,0,0,.32-.32v-.91a.32.32,0,0,0-.32-.32h-3.29V66a.54.54,0,0,0,.3-.42.29.29,0,0,0-.07-.25.33.33,0,0,0-.23-.12l-1.31-.08a.34.34,0,0,0-.24.09.31.31,0,0,0-.1.24v1.36h-3.2a.32.32,0,0,0-.33.32v.91h0l-.5-.22a.36.36,0,0,0-.27,0,.34.34,0,0,0-.18.21,23.09,23.09,0,0,1-.78,2.29V66a.52.52,0,0,0,.29-.41.32.32,0,0,0-.06-.25.37.37,0,0,0-.24-.12h-.23c-.21,0-.49,0-1-.07a.34.34,0,0,0-.25.09.35.35,0,0,0-.1.24v5.43c0,2.72-.18,5.82-2.39,8.17a.31.31,0,0,0-.09.26.34.34,0,0,0,.16.24,2.75,2.75,0,0,1,.62.61.28.28,0,0,0,.24.13h0a.31.31,0,0,0,.24-.1,9.26,9.26,0,0,0,2.21-3.9,20,20,0,0,1,1.33,1.79.3.3,0,0,0,.24.15.31.31,0,0,0,.27-.1l.72-.76a.32.32,0,0,0,0-.42c-.31-.41-1.59-1.91-2.17-2.56a22.93,22.93,0,0,0,.17-2.57l.38.2a.29.29,0,0,0,.18,0h.05a.35.35,0,0,0,.24-.17c.09-.17.18-.37.27-.57v.54a.33.33,0,0,0,.33.33h1.59v1.41H140.3a.32.32,0,0,0-.33.32v.92a.33.33,0,0,0,.33.33h2c-.18,2-.71,3.06-2.84,3.71a.34.34,0,0,0-.23.26.32.32,0,0,0,.12.31,2.11,2.11,0,0,1,.48.63.31.31,0,0,0,.3.2h.1c2.73-.87,3.45-2.5,3.71-5a.49.49,0,0,0,.16-.1h1.15v3.28c0,1.25.4,1.65,1.68,1.65h1.57c1.24,0,1.5-.84,1.59-2.59A.33.33,0,0,0,149.86,77.2Zm-3.48-5v1.41h-2.87V72.21Z"/><path class="cls-3" d="M166.77,70a.29.29,0,0,0-.16-.21.3.3,0,0,0-.26,0,21.49,21.49,0,0,1-4.54,1c-.12-.35-.26-.82-.41-1.41a18.86,18.86,0,0,0,3.95-.87.32.32,0,0,0,.2-.39l-.26-1a.34.34,0,0,0-.17-.2.32.32,0,0,0-.27,0,15.69,15.69,0,0,1-3.79.85c-.09-.48-.17-1-.23-1.41a.6.6,0,0,0,.38-.58.32.32,0,0,0-.32-.32l-1.61,0a.27.27,0,0,0-.24.11.37.37,0,0,0-.08.26c.09.64.21,1.34.35,2.11-.4,0-.91,0-1.4,0-.67,0-1.69,0-2.62,0a.3.3,0,0,0-.24.09.31.31,0,0,0-.1.24v1a.32.32,0,0,0,.31.32c.74,0,1.81,0,2.66,0,.58,0,1.18,0,1.73-.07.1.4.26,1,.41,1.44-1.11.07-2.21.07-3.37.07-.78,0-1.68,0-2.38,0a.37.37,0,0,0-.23.1.29.29,0,0,0-.1.23l0,1a.31.31,0,0,0,.31.32c.71,0,1.57,0,2.34,0,1.81,0,3,0,4-.14a6.76,6.76,0,0,0,.67,1h-1a.35.35,0,0,0-.24.14.28.28,0,0,0-.05.27l.21.86a.33.33,0,0,0,.34.24,8.19,8.19,0,0,1,2.29.16c.22.13.53.28.76.39l.17.09.14,0a.32.32,0,0,0,.27-.14l.62-.89a.31.31,0,0,0,0-.28.34.34,0,0,0-.2-.21,5.11,5.11,0,0,1-2.14-1.88,21.93,21.93,0,0,0,4.27-.92A.32.32,0,0,0,167,71Z"/><path class="cls-3" d="M163.94,77.92c-1.25.1-2.44.14-3.44.14s-3-.14-3-1.28c0-.47.48-1,1.26-1.44a.32.32,0,0,0,.17-.24.33.33,0,0,0-.09-.28l-.7-.71a.32.32,0,0,0-.39-.06,3.61,3.61,0,0,0-2,2.74,2.25,2.25,0,0,0,.66,1.67,5.85,5.85,0,0,0,4.13,1.25c1.49,0,2.55,0,3.45-.09a.32.32,0,0,0,.3-.32l0-1a.39.39,0,0,0-.1-.25A.38.38,0,0,0,163.94,77.92Z"/></g></g></svg>