<svg xmlns="http://www.w3.org/2000/svg" viewBox="0 0 121 20"><defs><style>.cls-1{fill:#fff;}</style></defs><g id="Capa_2" data-name="Capa 2"><g id="Elementos_superiores" data-name="Elementos superiores"><g id="Ig"><path class="cls-1" d="M121,6.23A6.74,6.74,0,0,0,120.57,4a4.56,4.56,0,0,0-1.1-1.64,4.41,4.41,0,0,0-1.64-1,6.69,6.69,0,0,0-2.21-.49h-7.56a6.55,6.55,0,0,0-2.23.48,4.65,4.65,0,0,0-1.64,1,4.41,4.41,0,0,0-1,1.64,6.81,6.81,0,0,0-.49,2.23v7.54a6.55,6.55,0,0,0,.48,2.23,4.57,4.57,0,0,0,1,1.64,4.49,4.49,0,0,0,1.62,1.07,6.94,6.94,0,0,0,2.25.46h7.54a6.49,6.49,0,0,0,2.23-.42,4.71,4.71,0,0,0,2.68-2.68,7,7,0,0,0,.49-2.3V6.23Zm-1.65,7.48a5.5,5.5,0,0,1-.32,1.7,3.06,3.06,0,0,1-1.75,1.74,5.12,5.12,0,0,1-1.69.32h-7.41a5.22,5.22,0,0,1-1.7-.32,2.91,2.91,0,0,1-1-.69,2.87,2.87,0,0,1-.69-1.05,5.22,5.22,0,0,1-.32-1.7V6.3a5.12,5.12,0,0,1,.32-1.69,3,3,0,0,1,.69-1.06,2.88,2.88,0,0,1,1-.68,5,5,0,0,1,1.7-.31h7.41a4.64,4.64,0,0,1,1.69.31,2.84,2.84,0,0,1,1.06.68A3,3,0,0,1,119,4.61a5.39,5.39,0,0,1,.32,1.69V10c0,2.46,0,2.71,0,3.69Z"/><path class="cls-1" d="M111.83,5.29A4.71,4.71,0,1,0,116.54,10h0A4.71,4.71,0,0,0,111.83,5.29Zm0,7.77A3.06,3.06,0,1,1,114.89,10,3.05,3.05,0,0,1,111.83,13.06Z"/><path class="cls-1" d="M117.83,5.11a1.1,1.1,0,1,1-1.1-1.1A1.1,1.1,0,0,1,117.83,5.11Z"/></g><path id="Facebook" class="cls-1" d="M10.7,0H7.75A4.54,4.54,0,0,0,3,4.29,4.33,4.33,0,0,0,3,5V6.67H.4a.42.42,0,0,0-.4.42V10.7a.42.42,0,0,0,.4.42H3V19.6a.39.39,0,0,0,.36.4H7a.4.4,0,0,0,.4-.4V11.12h3.33a.42.42,0,0,0,.42-.42V7.12a.45.45,0,0,0-.45-.45H7.33V5c0-.89.23-1.34,1.48-1.34H10.7a.4.4,0,0,0,.41-.33V.42A.41.41,0,0,0,10.7,0Z"/><path id="Youtube" class="cls-1" d="M87.82,4.28a3,3,0,0,0-2.1-2.09,68.86,68.86,0,0,0-9.3-.52,74.26,74.26,0,0,0-9.31.49A3,3,0,0,0,65,4.28,32.24,32.24,0,0,0,64.52,10,31.33,31.33,0,0,0,65,15.72a3,3,0,0,0,2.11,2.09,69,69,0,0,0,9.31.52,74.2,74.2,0,0,0,9.3-.49,3,3,0,0,0,2.1-2.1A31.41,31.41,0,0,0,88.3,10,30.61,30.61,0,0,0,87.82,4.28Zm-14,9.29V6.43L80,10Z"/><path id="Twitter" class="cls-1" d="M51.25,3.64a8.68,8.68,0,0,1-2.42.66A4.19,4.19,0,0,0,50.68,2,8.55,8.55,0,0,1,48,3a4.22,4.22,0,0,0-7.18,3.83,11.9,11.9,0,0,1-8.67-4.4,4.26,4.26,0,0,0-.57,2.13,4.18,4.18,0,0,0,1.87,3.49,4.2,4.2,0,0,1-1.9-.51v0a4.21,4.21,0,0,0,3.37,4.13,4,4,0,0,1-1.11.14,3.42,3.42,0,0,1-.79-.07A4.23,4.23,0,0,0,37,14.71a8.45,8.45,0,0,1-5.22,1.79,8.27,8.27,0,0,1-1-.05A12,12,0,0,0,49.16,6.37c0-.19,0-.37,0-.55A8.26,8.26,0,0,0,51.25,3.64Z"/></g></g></svg>