<svg xmlns="http://www.w3.org/2000/svg" viewBox="0 0 25.26 14"><defs><style>.cls-1{fill:#fff;}</style></defs><g id="Capa_2" data-name="Capa 2"><g id="Elementos_superiores" data-name="Elementos superiores"><path class="cls-1" d="M12.87,12.06c-.49,0-1,0-1.67,0-3,0-3.58-.41-3.58-1.18a2.54,2.54,0,0,1,.71-1.47.35.35,0,0,0,.07-.28A.34.34,0,0,0,8.21,9l-.9-.39a.32.32,0,0,0-.37.09,4,4,0,0,0-1,2.39,2.41,2.41,0,0,0,1.91,2.39,14.71,14.71,0,0,0,3.67.35c.47,0,.94,0,1.4,0a.32.32,0,0,0,.3-.32V12.37a.29.29,0,0,0-.1-.23A.3.3,0,0,0,12.87,12.06Z"/><path class="cls-1" d="M9.18,3.3l-.24-1A.32.32,0,0,0,8.53,2a16.35,16.35,0,0,1-3.76.79c.05-.29.09-.57.14-.84S5,1.32,5.06,1A.67.67,0,0,0,5.53.5.32.32,0,0,0,5.25.15L3.69,0a.32.32,0,0,0-.35.28C3.27,1,3.16,1.88,3,3H.33A.29.29,0,0,0,.1,3a.29.29,0,0,0-.1.23l0,1a.31.31,0,0,0,.3.31c.35,0,1.71,0,2.42,0A31.62,31.62,0,0,1,.1,13.13a.3.3,0,0,0,0,.26.31.31,0,0,0,.19.18L1.35,14l.11,0a.32.32,0,0,0,.29-.18A40.76,40.76,0,0,0,4.5,4.53,18.75,18.75,0,0,0,9,3.67.31.31,0,0,0,9.18,3.3Z"/><path class="cls-1" d="M6.7,6.24,7,7.17a.32.32,0,0,0,.16.2.33.33,0,0,0,.15,0l.09,0a16.67,16.67,0,0,1,5.13-.66.37.37,0,0,0,.23-.09.32.32,0,0,0,.09-.23v-1a.3.3,0,0,0-.3-.31,18.67,18.67,0,0,0-5.6.78A.31.31,0,0,0,6.7,6.24Z"/><path class="cls-1" d="M15.37,3.64c1.23,0,2.89,0,4.15-.08-.56.36-1.12.76-1.56,1.1a.31.31,0,0,0-.12.27.32.32,0,0,0,.14.25l.86.54a.28.28,0,0,0,.17,0,.31.31,0,0,0,.2-.07,12.18,12.18,0,0,1,4.92-2.49.31.31,0,0,0,.28-.34l-.12-1.12a.3.3,0,0,0-.14-.22.28.28,0,0,0-.25-.05A49.54,49.54,0,0,1,15.37,2a.3.3,0,0,0-.24.09.33.33,0,0,0-.09.24c0,.27,0,.76,0,1.05A.31.31,0,0,0,15.37,3.64Z"/><path class="cls-1" d="M25.06,11.21a.4.4,0,0,0-.26-.06,24.23,24.23,0,0,1-4.59.41,12.32,12.32,0,0,1-2.4-.18c-1-.23-1.64-.83-1.64-1.66a3.86,3.86,0,0,1,1.24-2.47.32.32,0,0,0-.08-.5l-.88-.45a.31.31,0,0,0-.37.06,5.07,5.07,0,0,0-1.63,3.45A3.23,3.23,0,0,0,17.32,13a17.27,17.27,0,0,0,3,.2A28.31,28.31,0,0,0,25,12.86a.32.32,0,0,0,.26-.33l-.08-1.09A.35.35,0,0,0,25.06,11.21Z"/></g></g></svg>