<svg xmlns="http://www.w3.org/2000/svg" viewBox="0 0 30.52 14"><defs><style>.cls-1{fill:#fff;}</style></defs><g id="Capa_2" data-name="Capa 2"><g id="Elementos_superiores" data-name="Elementos superiores"><path class="cls-1" d="M.16,7.07l.65.35a.32.32,0,0,0,.14,0,.3.3,0,0,0,.24-.12,7.49,7.49,0,0,0,1-3.94.3.3,0,0,0-.25-.31L1.22,3A.36.36,0,0,0,1,3.05a.32.32,0,0,0-.1.22A6.15,6.15,0,0,1,.06,6.62a.31.31,0,0,0,0,.25A.26.26,0,0,0,.16,7.07Z"/><path class="cls-1" d="M14.7,11.14a2.61,2.61,0,0,1-.71-.31.29.29,0,0,0-.31,0,.28.28,0,0,0-.17.26,7.3,7.3,0,0,1-.11,1.34H12a.19.19,0,0,1,0-.08v-3l.13-.09h2.42a.3.3,0,0,0,.3-.3V8.13a.29.29,0,0,0-.3-.3H13V6.53h1.48a.29.29,0,0,0,.3-.3V5.37a.29.29,0,0,0-.3-.3H13v-1a.51.51,0,0,0,.27-.36.31.31,0,0,0-.06-.23A.3.3,0,0,0,13,3.35l-1.18-.08a.27.27,0,0,0-.22.08.29.29,0,0,0-.1.22v1.5H8.84v-1a.51.51,0,0,0,.27-.36.31.31,0,0,0-.06-.23.3.3,0,0,0-.21-.12L7.67,3.27a.3.3,0,0,0-.23.08.28.28,0,0,0-.09.22v1.5H5.88c.22-.52.43-1,.59-1.47a.61.61,0,0,0,.33-.24.33.33,0,0,0,0-.24A.3.3,0,0,0,6.74,3H9.39V4.45a.31.31,0,0,0,.3.3h.92a.3.3,0,0,0,.3-.3V3h3a.29.29,0,0,0,.3-.3V1.85a.29.29,0,0,0-.3-.29h-3V.8A.5.5,0,0,0,11.2.42a.3.3,0,0,0-.07-.24.33.33,0,0,0-.21-.11L9.71,0a.33.33,0,0,0-.22.08.32.32,0,0,0-.1.22V1.56H6.44a.29.29,0,0,0-.3.29v.84h0l-.46-.2a.31.31,0,0,0-.25,0,.26.26,0,0,0-.16.19,21.19,21.19,0,0,1-.72,2.11v-4A.46.46,0,0,0,4.82.42.34.34,0,0,0,4.76.18.36.36,0,0,0,4.54.07H4.33L3.4,0a.27.27,0,0,0-.23.08.32.32,0,0,0-.1.22v5c0,2.51-.17,5.37-2.2,7.54a.24.24,0,0,0-.08.24.3.3,0,0,0,.14.22,2.52,2.52,0,0,1,.57.56.3.3,0,0,0,.23.13h0A.27.27,0,0,0,2,13.91,8.58,8.58,0,0,0,4,10.3c.48.61,1,1.28,1.22,1.66a.31.31,0,0,0,.23.14A.34.34,0,0,0,5.71,12l.66-.71a.3.3,0,0,0,0-.39c-.29-.37-1.47-1.76-2-2.36a19.39,19.39,0,0,0,.16-2.37l.35.19a.33.33,0,0,0,.17,0h0a.27.27,0,0,0,.22-.16c.09-.16.17-.34.26-.52v.5a.29.29,0,0,0,.3.3H7.35v1.3H5.88a.29.29,0,0,0-.3.3V9a.3.3,0,0,0,.3.3H7.73c-.17,1.83-.66,2.83-2.63,3.43a.29.29,0,0,0-.21.23.3.3,0,0,0,.11.29,1.9,1.9,0,0,1,.44.58.3.3,0,0,0,.28.19h.09C8.33,13.18,9,11.68,9.24,9.38l.15-.1h1v3c0,1.16.38,1.53,1.55,1.53h1.46c1.14,0,1.38-.77,1.46-2.39A.29.29,0,0,0,14.7,11.14ZM11.49,6.53v1.3H8.84V6.53Z"/><path class="cls-1" d="M30.31,4.48a.33.33,0,0,0-.15-.2.29.29,0,0,0-.24,0,19.85,19.85,0,0,1-4.19.91c-.11-.32-.24-.75-.38-1.3A17.25,17.25,0,0,0,29,3.07a.3.3,0,0,0,.18-.36l-.24-.89a.33.33,0,0,0-.16-.19.29.29,0,0,0-.24,0A14.28,14.28,0,0,1,25,2.41C25,2,24.88,1.49,24.82,1.1a.56.56,0,0,0,.36-.53.31.31,0,0,0-.3-.3H23.4a.24.24,0,0,0-.23.1A.31.31,0,0,0,23.1.6c.08.59.19,1.23.33,1.94-.38,0-.85,0-1.3,0-.62,0-1.56,0-2.42,0a.27.27,0,0,0-.22.08.31.31,0,0,0-.09.22v.89a.3.3,0,0,0,.28.3c.69,0,1.67,0,2.46,0,.54,0,1.09,0,1.59-.07.1.37.25.9.38,1.33-1,.07-2,.07-3.1.07l-2.2,0a.39.39,0,0,0-.22.09.27.27,0,0,0-.09.21l0,.91a.31.31,0,0,0,.29.3H21c1.68,0,2.74,0,3.69-.13a7.18,7.18,0,0,0,.62,1,7.35,7.35,0,0,0-.94,0,.3.3,0,0,0-.28.37l.21.79a.3.3,0,0,0,.31.23,7.5,7.5,0,0,1,2.11.14c.21.13.48.26.7.37l.16.07a.2.2,0,0,0,.13,0,.29.29,0,0,0,.24-.13l.58-.82a.3.3,0,0,0,0-.26.29.29,0,0,0-.18-.19,4.74,4.74,0,0,1-2-1.74,21.52,21.52,0,0,0,3.93-.85.3.3,0,0,0,.2-.35Z"/><path class="cls-1" d="M27.69,11.8c-1.15.09-2.25.13-3.17.13s-2.8-.13-2.8-1.18c0-.44.45-.95,1.17-1.33A.31.31,0,0,0,23,9.2.28.28,0,0,0,23,8.94l-.65-.66a.29.29,0,0,0-.36,0,3.3,3.3,0,0,0-1.85,2.53,2.06,2.06,0,0,0,.61,1.54,5.44,5.44,0,0,0,3.81,1.15c1.37,0,2.35,0,3.19-.08a.29.29,0,0,0,.27-.29l0-1a.31.31,0,0,0-.09-.22A.32.32,0,0,0,27.69,11.8Z"/></g></g></svg>